<svg width="188" height="44" viewBox="0 0 188 44" fill="none" xmlns="http://www.w3.org/2000/svg">
<path d="M26.9833 3.33331H13.0166C6.94998 3.33331 3.33331 6.94998 3.33331 13.0166V26.9666C3.33331 33.05 6.94998 36.6666 13.0166 36.6666H26.9666C33.0333 36.6666 36.65 33.05 36.65 26.9833V13.0166C36.6666 6.94998 33.05 3.33331 26.9833 3.33331ZM19.1666 28.75C19.1666 29.35 18.5666 29.75 18.0166 29.5166C16 28.65 13.3666 27.85 11.5333 27.6166L11.2166 27.5833C10.2 27.45 9.36665 26.5 9.36665 25.4666V12.6333C9.36665 11.35 10.4 10.4 11.6666 10.5C13.75 10.6666 16.8333 11.6666 18.7666 12.7666C19.0333 12.9166 19.1666 13.2 19.1666 13.4833V28.75ZM30.6333 25.45C30.6333 26.4833 29.8 27.4333 28.7833 27.5666L28.4333 27.6C26.6166 27.85 24 28.6333 21.9833 29.4833C21.4333 29.7166 20.8333 29.3166 20.8333 28.7166V13.4666C20.8333 13.1666 20.9833 12.8833 21.25 12.7333C23.1833 11.65 26.2 10.6833 28.25 10.5H28.3166C29.6 10.5 30.6333 11.5333 30.6333 12.8166V25.45Z" fill="#546FFF"/>
<path d="M57.016 21V5.64H52.264V3.12H64.504V5.64H59.824V21H57.016ZM68.0958 21.288C67.2157 21.288 66.4397 21.136 65.7678 20.832C65.1117 20.512 64.5997 20.08 64.2317 19.536C63.8637 18.976 63.6797 18.32 63.6797 17.568C63.6797 16.864 63.8317 16.232 64.1357 15.672C64.4557 15.112 64.9437 14.64 65.5997 14.256C66.2557 13.872 67.0797 13.6 68.0718 13.44L72.5838 12.696V14.832L68.5998 15.528C67.8798 15.656 67.3518 15.888 67.0158 16.224C66.6797 16.544 66.5117 16.96 66.5117 17.472C66.5117 17.968 66.6957 18.376 67.0637 18.696C67.4477 19 67.9357 19.152 68.5277 19.152C69.2638 19.152 69.9038 18.992 70.4477 18.672C71.0078 18.352 71.4398 17.928 71.7438 17.4C72.0478 16.856 72.1998 16.256 72.1998 15.6V12.264C72.1998 11.624 71.9598 11.104 71.4798 10.704C71.0157 10.288 70.3917 10.08 69.6077 10.08C68.8877 10.08 68.2557 10.272 67.7118 10.656C67.1837 11.024 66.7917 11.504 66.5357 12.096L64.2797 10.968C64.5197 10.328 64.9117 9.768 65.4557 9.288C65.9997 8.792 66.6317 8.408 67.3518 8.136C68.0878 7.864 68.8637 7.728 69.6797 7.728C70.7037 7.728 71.6077 7.92 72.3917 8.304C73.1918 8.688 73.8078 9.224 74.2398 9.912C74.6878 10.584 74.9118 11.368 74.9118 12.264V21H72.3198V18.648L72.8718 18.72C72.5678 19.248 72.1758 19.704 71.6958 20.088C71.2318 20.472 70.6957 20.768 70.0878 20.976C69.4958 21.184 68.8318 21.288 68.0958 21.288ZM82.1627 21.288C80.8347 21.288 79.6667 20.96 78.6587 20.304C77.6667 19.648 76.9707 18.768 76.5707 17.664L78.6587 16.68C79.0107 17.416 79.4907 18 80.0987 18.432C80.7227 18.864 81.4107 19.08 82.1627 19.08C82.8027 19.08 83.3228 18.936 83.7228 18.648C84.1227 18.36 84.3227 17.968 84.3227 17.472C84.3227 17.152 84.2347 16.896 84.0588 16.704C83.8828 16.496 83.6587 16.328 83.3867 16.2C83.1307 16.072 82.8668 15.976 82.5947 15.912L80.5547 15.336C79.4347 15.016 78.5947 14.536 78.0347 13.896C77.4907 13.24 77.2187 12.48 77.2187 11.616C77.2187 10.832 77.4187 10.152 77.8187 9.576C78.2187 8.984 78.7707 8.528 79.4747 8.208C80.1787 7.888 80.9707 7.728 81.8507 7.728C83.0347 7.728 84.0907 8.024 85.0187 8.616C85.9467 9.192 86.6027 10 86.9867 11.04L84.8988 12.024C84.6428 11.4 84.2348 10.904 83.6748 10.536C83.1307 10.168 82.5147 9.984 81.8267 9.984C81.2347 9.984 80.7627 10.128 80.4107 10.416C80.0587 10.688 79.8827 11.048 79.8827 11.496C79.8827 11.8 79.9627 12.056 80.1227 12.264C80.2827 12.456 80.4907 12.616 80.7467 12.744C81.0027 12.856 81.2667 12.952 81.5387 13.032L83.6507 13.656C84.7227 13.96 85.5467 14.44 86.1228 15.096C86.6987 15.736 86.9867 16.504 86.9867 17.4C86.9867 18.168 86.7787 18.848 86.3627 19.44C85.9627 20.016 85.4027 20.472 84.6827 20.808C83.9627 21.128 83.1227 21.288 82.1627 21.288ZM88.924 21V2.832H91.636V15L90.58 14.736L97.084 8.016H100.468L95.572 13.224L100.684 21H97.564L93.004 14.112L94.612 13.896L90.772 17.976L91.636 16.176V21H88.924ZM53.848 43V25.12H56.488L63.208 34.432H61.888L68.488 25.12H71.128V43H68.32V28.456L69.376 28.744L62.632 37.96H62.344L55.744 28.744L56.68 28.456V43H53.848ZM72.5206 43L78.8086 25.12H82.3126L88.6006 43H85.5766L84.2086 38.992H76.9366L75.5446 43H72.5206ZM77.7526 36.472H83.3446L80.1766 27.112H80.9686L77.7526 36.472ZM90.0018 43V25.12H92.2818L102.314 38.968L101.234 39.136V25.12H104.042V43H101.762L91.8018 29.056L92.8338 28.864V43H90.0018ZM105.44 43L111.728 25.12H115.232L121.52 43H118.496L117.128 38.992H109.856L108.464 43H105.44ZM110.672 36.472H116.264L113.096 27.112H113.888L110.672 36.472ZM130.571 43.288C129.307 43.288 128.131 43.056 127.043 42.592C125.971 42.128 125.027 41.488 124.211 40.672C123.411 39.84 122.787 38.864 122.339 37.744C121.891 36.624 121.667 35.392 121.667 34.048C121.667 32.72 121.883 31.496 122.315 30.376C122.763 29.24 123.387 28.264 124.187 27.448C124.987 26.616 125.923 25.976 126.995 25.528C128.067 25.064 129.243 24.832 130.523 24.832C131.787 24.832 132.915 25.048 133.907 25.48C134.915 25.912 135.763 26.48 136.451 27.184C137.139 27.872 137.635 28.624 137.939 29.44L135.419 30.664C135.051 29.688 134.443 28.904 133.595 28.312C132.747 27.704 131.723 27.4 130.523 27.4C129.339 27.4 128.291 27.68 127.379 28.24C126.467 28.8 125.755 29.576 125.243 30.568C124.747 31.56 124.499 32.72 124.499 34.048C124.499 35.376 124.755 36.544 125.267 37.552C125.795 38.544 126.515 39.32 127.427 39.88C128.339 40.424 129.387 40.696 130.571 40.696C131.563 40.696 132.467 40.496 133.283 40.096C134.115 39.68 134.779 39.104 135.275 38.368C135.771 37.616 136.019 36.744 136.019 35.752V34.528L137.291 35.68H130.523V33.28H138.827V34.96C138.827 36.272 138.603 37.448 138.155 38.488C137.707 39.512 137.099 40.384 136.331 41.104C135.563 41.824 134.683 42.368 133.691 42.736C132.699 43.104 131.659 43.288 130.571 43.288ZM140.998 43V25.12H152.782V27.64H143.83V32.776H152.302V35.296H143.83V40.48H152.782V43H140.998ZM154.692 43V25.12H161.196C162.396 25.12 163.452 25.344 164.364 25.792C165.276 26.224 165.988 26.864 166.5 27.712C167.028 28.544 167.292 29.544 167.292 30.712C167.292 31.944 166.98 33 166.356 33.88C165.748 34.76 164.924 35.4 163.884 35.8L168.012 43H164.796L160.404 35.2L162.252 36.28H157.524V43H154.692ZM157.524 33.76H161.244C161.9 33.76 162.468 33.632 162.948 33.376C163.428 33.12 163.796 32.768 164.052 32.32C164.324 31.856 164.46 31.312 164.46 30.688C164.46 30.064 164.324 29.528 164.052 29.08C163.796 28.616 163.428 28.264 162.948 28.024C162.468 27.768 161.9 27.64 161.244 27.64H157.524V33.76Z" fill="#EEEEEE"/>
</svg>
